<svg xmlns="http://www.w3.org/2000/svg" viewBox="0 0 500 500"><g id="freepik--background-simple--inject-693"><path d="M335.81,85.65C371.43,94,393.6,127.52,390,163.48c-5.13,51.86-51.66,78.54-73.77,121.62-9.58,18.69-16.38,38.76-26.41,57.25C265.35,387.56,203,394,183.58,341.91c-6-16.1-2.64-36-16.11-48.82-12.48-11.84-30.41-12-45.31-18.92-15.06-7-26.94-20.94-32.07-36.66-8.61-26.36,2.9-56.34,21.76-75.45,21.77-22.06,51.31-18,79.44-21,27.77-2.89,48.45-16.35,70.26-32.45C283.65,92.33,307.45,79,335.81,85.65Z" style="fill:#407BFF"></path><path d="M335.81,85.65C371.43,94,393.6,127.52,390,163.48c-5.13,51.86-51.66,78.54-73.77,121.62-9.58,18.69-16.38,38.76-26.41,57.25C265.35,387.56,203,394,183.58,341.91c-6-16.1-2.64-36-16.11-48.82-12.48-11.84-30.41-12-45.31-18.92-15.06-7-26.94-20.94-32.07-36.66-8.61-26.36,2.9-56.34,21.76-75.45,21.77-22.06,51.31-18,79.44-21,27.77-2.89,48.45-16.35,70.26-32.45C283.65,92.33,307.45,79,335.81,85.65Z" style="fill:#fff;opacity:0.9;isolation:isolate"></path></g><g id="freepik--Shadow--inject-693"><ellipse id="freepik--path--inject-693" cx="250" cy="416.24" rx="193.89" ry="11.32" style="fill:#f5f5f5"></ellipse></g><g id="freepik--Cloud--inject-693"><path d="M238.48,152a30.13,30.13,0,0,0,.66-6.28,29.82,29.82,0,0,0-29.82-29.82,30.36,30.36,0,0,0-5.51.51c-.76-.14-1.53,0-2.32-.09A34.92,34.92,0,0,0,169.5,96h-11a35,35,0,0,0-35.17,34.92c0,.26,0,.39,0,.65a29.44,29.44,0,0,0,5.4,58.43h108a19,19,0,0,0,1.73-38Z" style="fill:#407BFF"></path><path d="M238.48,152a30.13,30.13,0,0,0,.66-6.28,29.82,29.82,0,0,0-29.82-29.82,30.36,30.36,0,0,0-5.51.51c-.76-.14-1.53,0-2.32-.09A34.92,34.92,0,0,0,169.5,96h-11a35,35,0,0,0-35.17,34.92c0,.26,0,.39,0,.65a29.44,29.44,0,0,0,5.4,58.43h108a19,19,0,0,0,1.73-38Z" style="fill:#fff;opacity:0.5;isolation:isolate"></path><path d="M238.48,152a30.13,30.13,0,0,0,.66-6.28,29.82,29.82,0,0,0-29.82-29.82,30.36,30.36,0,0,0-5.51.51c-.76-.14-1.53,0-2.32-.09A34.92,34.92,0,0,0,169.5,96h0a35,35,0,0,0-35.17,34.92c0,.26,0,.39,0,.65a29.44,29.44,0,0,0,5.4,58.43h97a19,19,0,0,0,1.73-38Z" style="fill:#fff;opacity:0.4;isolation:isolate"></path><path d="M267.67,239H234a50.06,50.06,0,0,1-50-50V179H174v10a60.07,60.07,0,0,0,60,60h33.67Z" style="fill:#407BFF"></path><polygon points="178.88 172.34 170.21 181 187.54 181 178.88 172.34" style="fill:#407BFF"></polygon></g><g id="freepik--Chair--inject-693"><polygon points="372.4 330 372.76 345.57 374.4 416 379.81 416 381.44 345.57 381.8 330 372.4 330" style="fill:#407BFF"></polygon><polygon points="372.4 330 372.76 345.57 374.4 416 379.81 416 381.44 345.57 381.8 330 372.4 330" style="fill:#fff;opacity:0.4;isolation:isolate"></polygon><polygon points="372.4 330 372.76 346 381.44 346 381.8 330 372.4 330" style="opacity:0.2;isolation:isolate"></polygon><polygon points="343.02 415.75 348.02 331.1 356.19 331.1 349.19 415.75 343.02 415.75" style="fill:#407BFF"></polygon><polygon points="349.21 415.75 343.03 415.75 347.57 338.7 348.02 331 356.19 331 355.56 338.7 349.21 415.75" style="fill:#fff;opacity:0.5;isolation:isolate"></polygon><polygon points="356.19 331 355.56 339 347.57 339 348.02 331 356.19 331" style="opacity:0.2;isolation:isolate"></polygon><polygon points="405.02 415.75 398.02 331.1 406.19 331.1 411.19 415.75 405.02 415.75" style="fill:#407BFF"></polygon><polygon points="405 415.75 398.65 338.7 398.02 331 406.19 331 406.64 338.7 411.18 415.75 405 415.75" style="fill:#fff;opacity:0.5;isolation:isolate"></polygon><polygon points="398.02 331 398.65 339 406.64 339 406.19 331 398.02 331" style="opacity:0.2;isolation:isolate"></polygon><path d="M343.65,322.33h66.92a0,0,0,0,1,0,0V329a5,5,0,0,1-5,5H348.65a5,5,0,0,1-5-5v-6.69A0,0,0,0,1,343.65,322.33Z" transform="translate(754.21 656.36) rotate(180)" style="fill:#407BFF"></path><rect x="340.44" y="328.18" width="73.33" height="5.84" rx="2.01" transform="translate(754.21 662.2) rotate(180)" style="fill:#407BFF"></rect><rect x="340.44" y="328.18" width="73.33" height="5.84" rx="2.01" transform="translate(754.21 662.2) rotate(180)" style="fill:#fff;opacity:0.6000000000000001;isolation:isolate"></rect></g><g id="freepik--Character--inject-693"><g id="freepik--group--inject-693"><path d="M353.09,227.5s-.28.76-.79,2-1.29,3.13-2.24,5.19c-2.3,5-5.64,11.36-9.13,14.79a9.4,9.4,0,0,1-3.1,2.16c-3.72,1.43-13.05,1.69-21.38,1.61s-15.45-.5-15.45-.5v-6.31l27.39-7.3s14.44-26.06,23-29.92Z" style="fill:#263238"></path><path d="M352.3,229.51c-.52,1.3-1.29,3.13-2.24,5.19-2.3,5-5.64,11.36-9.13,14.79-3.55-13.08,9.58-25.53,9.58-25.53Z" style="opacity:0.2;isolation:isolate"></path><polygon points="348.76 408.78 340.79 407.69 339.69 388.75 347.64 389.85 348.76 408.78" style="fill:#ebb376"></polygon><polygon points="347.64 389.85 339.69 388.76 340.32 399.58 348.27 400.28 347.64 389.85" style="opacity:0.2;isolation:isolate"></polygon><path d="M348.44,297.46l1.94-12.18L395,282.61s4.75,25.34,1.1,32.09c-6.51,12.05-41.61,6-51.89,7.15C350.39,347,349.79,396,349.79,396l-14.67,1.12s-11.28-52.87-13.57-78C320,302.2,334.06,302.62,348.44,297.46Z" style="fill:#407BFF"></path><polygon points="351.51 396.73 333.88 397.88 332.37 390.33 351.74 389.44 351.51 396.73" style="fill:#407BFF"></polygon><polygon points="330.38 401.71 322.36 402.3 317.34 384.01 325.35 383.43 330.38 401.71" style="fill:#ebb376"></polygon><path d="M321.28,402.57l-.14,0h0c0-.12-.41-2.37-1.38-2.9a.9.9,0,0,0-.8,0,.7.7,0,0,0-.49.73,3,3,0,0,0,1.18,1.63,3.21,3.21,0,0,0-2.24.06.71.71,0,0,0-.28.63,1,1,0,0,0,.51.94,2.15,2.15,0,0,0,1.56,0,10,10,0,0,0,2-.84h.07s0,0,0-.06A.16.16,0,0,0,321.28,402.57Zm-2.41-2.24c0-.11,0-.25.27-.35l.09,0a.5.5,0,0,1,.43.05c.58.31,1,1.53,1.17,2.26l-.18-.05C319.86,401.77,318.94,400.87,318.87,400.33Zm-1.05,2.94a.71.71,0,0,1-.31-.61.36.36,0,0,1,.13-.31c.46-.34,1.92-.05,3,.27C319.31,403.28,318.29,403.52,317.82,403.27Z" style="fill:#407BFF"></path><polygon points="325.35 383.43 317.34 384.02 320.21 394.47 328.13 393.5 325.35 383.43" style="opacity:0.2;isolation:isolate"></polygon><path d="M314.62,393.18,328.74,389s-8.43-47.58-17-64.08c.64-.21,1.49-.48,2.54-.79,1.89-.57,4.4-1.28,7.35-2.1,20.52-5.69,62.11-16.36,62.11-16.36l-19-17.73s-75.68,11.54-77.25,31.48C286.76,329,314.62,393.18,314.62,393.18Z" style="fill:#407BFF"></path><polygon points="330.56 389.34 313.56 394.15 310.51 387.08 329.27 382.17 330.56 389.34" style="fill:#407BFF"></polygon><path d="M314.3,324.16c1.89-.57,4.4-1.28,7.35-2.1-.59-4.84-.6-10.39,1.73-13.22,4.63-5.64,16.54-8.95,23.32-10.15,5.67-1,24.72-3,24.72-3s-24.72-2.37-50,5C308.94,304.35,311.37,316.56,314.3,324.16Z" style="opacity:0.2;isolation:isolate"></path><path d="M397.52,295.34c3-2.29.12-23.59,1.65-44.54,2.33-31.9,0-42.15-2.35-43.14a90.4,90.4,0,0,0-13.13-1.3,168.12,168.12,0,0,0-19.31.42,84.74,84.74,0,0,0-13,2.64s-10.52,33.5-3.8,81.75Z" style="fill:#263238"></path><path d="M400,234.38s0,0,0,0c-.13,4.69-.41,10.13-.87,16.41-1.53,20.95,1.33,42.25-1.65,44.54l-49.95-4.17a225.22,225.22,0,0,1-.05-63.15c4.06-6.34,11.94-13.57,15.56-16.74a7.52,7.52,0,0,0,4.6,2.39c3.89.76,8.33-1,12-3.24,2.9,2.89,8.4,8.74,10.81,13.67a15.72,15.72,0,0,1,.67,1.57c1.53,4.28,6.2-1,8.58-7.88A149,149,0,0,1,400,234.38Z" style="fill:#fff;opacity:0.8"></path><path d="M381.32,184.71c-1.09,6.24-2.06,17.64,2.37,21.7a20,20,0,0,1-14,6.36c-8,.35-5.3-6-5.3-6,6.9-1.8,6.6-6.94,5.29-11.74Z" style="fill:#ebb376"></path><path d="M376.57,188.94l-6.89,6.14a19.78,19.78,0,0,1,.67,3.41c2.64-.43,6.21-3.42,6.44-6.2A9.22,9.22,0,0,0,376.57,188.94Z" style="opacity:0.2;isolation:isolate"></path><path d="M366.19,168.56c3.45,2.34,1.88,6.3-5.92,12.51C357.11,177,356.58,169,359.1,167S363.19,166.53,366.19,168.56Z" style="fill:#263238"></path><path d="M381,175c-.37,8.43-.17,13.37-4.34,17.77-6.28,6.61-16.74,2.93-18.89-5.44-1.92-7.52-1-20,7.19-23.53A11.49,11.49,0,0,1,381,175Z" style="fill:#ebb376"></path><path d="M368.49,177.5c0,.69-.34,1.25-.79,1.26s-.81-.54-.82-1.23.33-1.24.78-1.25S368.43,176.83,368.49,177.5Z" style="fill:#263238"></path><path d="M360.7,177.65c0,.68-.34,1.24-.79,1.25s-.82-.53-.83-1.23.34-1.25.79-1.25S360.69,177,360.7,177.65Z" style="fill:#263238"></path><path d="M363.25,177.93a24.39,24.39,0,0,1-3.17,5.91,4,4,0,0,0,3.28.56Z" style="fill:#d58745"></path><path d="M370.58,175a.36.36,0,0,0,.25-.06.4.4,0,0,0,.08-.56,4,4,0,0,0-3.31-1.61.38.38,0,0,0-.36.41v0a.41.41,0,0,0,.43.36h0a3.18,3.18,0,0,1,2.6,1.3A.44.44,0,0,0,370.58,175Z" style="fill:#263238"></path><path d="M357.11,175.08a.41.41,0,0,0,.37-.23,3.17,3.17,0,0,1,2.23-1.86.41.41,0,0,0,.34-.46.4.4,0,0,0-.45-.34,4,4,0,0,0-2.85,2.32.4.4,0,0,0,.19.53h0A.32.32,0,0,0,357.11,175.08Z" style="fill:#263238"></path><path d="M377.54,167.58c-3.91,1.42-3.35,5.65,2.69,13.57,4.08-3.21,6.55-10.82,4.58-13.37S381,166.35,377.54,167.58Z" style="fill:#263238"></path><path d="M385.15,181.65a8,8,0,0,1-3.73,4.86c-2.45,1.38-4.34-.65-4.23-3.3.11-2.4,1.51-6,4.24-6.3S385.81,179.13,385.15,181.65Z" style="fill:#ebb376"></path><path d="M369.68,185.79a5.88,5.88,0,0,1-5.54,2.63" style="fill:none;stroke:#263238;stroke-linecap:round;stroke-linejoin:round;stroke-width:0.526291px"></path><path d="M369,166.24s1.26,8.44,9.39,9,9.87-4.49,9.87-4.49a15.54,15.54,0,0,1-2,.16s2.38-4.09,0-8-10.48-8.09-16.49-6a14.27,14.27,0,0,0-11.38,1.1c-5.63,3.27-4.63,10.4-4.63,10.4s-.25-4.33,2.38-5.54c0,0-3.25,8.91,1.62,11.29C357.75,174.13,358.23,165.36,369,166.24Z" style="fill:#263238"></path><path d="M355.17,246s-29-.66-30.64-.82-8.51-4-10-4.21-5.38,6-5.87,7.44,11,5.34,12.11,5.17a20.69,20.69,0,0,0,3.73-1.39l29.6,3.81Z" style="fill:#ebb376"></path><path d="M271,252v2.65c0,.79,1.36,1.35,2.15,1.35h61.79c.8,0,2.06-.56,2.06-1.35V252Z" style="fill:#263238"></path><path d="M271,252v2.65c0,.79,1.36,1.35,2.15,1.35h61.79c.8,0,2.06-.56,2.06-1.35V252Z" style="fill:#fff;opacity:0.6000000000000001;isolation:isolate"></path><path d="M271,252v2.65c0,.79,1.36,1.35,2.15,1.35H313.9c.8,0,2.1-.56,2.1-1.35V252Z" style="opacity:0.2;isolation:isolate"></path><path d="M261.09,219.51,268.45,253a2.61,2.61,0,0,0,2.39,2H311a1.74,1.74,0,0,0,1.51-2.24l-7.35-33.12a2.3,2.3,0,0,0-2.39-1.64H262.61C261.53,218,260.85,218.42,261.09,219.51Z" style="fill:#263238"></path><path d="M261.09,219.51,268.45,253a2.61,2.61,0,0,0,2.39,2H311a1.74,1.74,0,0,0,1.51-2.24l-7.35-33.12a2.3,2.3,0,0,0-2.39-1.64H262.61C261.53,218,260.85,218.42,261.09,219.51Z" style="fill:#fff;opacity:0.6000000000000001;isolation:isolate"></path><path d="M261.09,219.51,268.45,253a2.61,2.61,0,0,0,2.39,2h38.81a1.75,1.75,0,0,0,1.52-2.24l-7.35-33.12a2.3,2.3,0,0,0-2.39-1.64H262.61C261.53,218,260.85,218.42,261.09,219.51Z" style="fill:#fff;opacity:0.4;isolation:isolate"></path><path d="M284.73,241c-1.87,0-3.79-2-4.28-4.48S281.09,232,283,232a2.91,2.91,0,0,1,1,.2,5.74,5.74,0,0,0,3.19,4.09,1.46,1.46,0,0,1,.05.2C287.74,239,286.61,241,284.73,241Z" style="opacity:0.2;isolation:isolate"></path><path d="M400,234.38s0,0,0,0c-4.31,7-10.34,14.45-16.35,14.1-6.29-.37.05-13.21,6.81-24.39a15.72,15.72,0,0,1,.67,1.57c1.53,4.28,6.2-1,8.58-7.88A149,149,0,0,1,400,234.38Z" style="opacity:0.2;isolation:isolate"></path><path d="M396.82,207.66c14.83,5.34-11.2,45.5-19.29,49.64s-29.35-.63-29.35-.63l1.32-12.41s16.83,1.14,20.18.29,11.31-18,15.89-26.05A25.84,25.84,0,0,1,396.82,207.66Z" style="fill:#263238"></path><polygon points="351.51 396.73 333.88 397.88 332.37 390.33 351.74 389.44 351.51 396.73" style="fill:#fff;opacity:0.2"></polygon><polygon points="330.56 389.34 313.56 394.15 310.51 387.08 329.27 382.17 330.56 389.34" style="fill:#fff;opacity:0.2"></polygon><path d="M321.58,401.48l8.68-2.42a.58.58,0,0,1,.72.36h0l2.35,6.76a1.43,1.43,0,0,1-1,1.75c-3.05.79-4.54,1-8.37,2.06-2.35.65-6.93,2.15-10.28,2.53s-3.63-2.94-2.25-3.39c3.28-1.1,7.21-4.52,8.91-6.84A2.27,2.27,0,0,1,321.58,401.48Z" style="fill:#263238"></path><path d="M340,407.7h0c0-.14-.14-2.41-1-3.13a1.16,1.16,0,0,0-.9-.21.77.77,0,0,0-.68.6,2.89,2.89,0,0,0,.79,1.84,3.31,3.31,0,0,0-2.22-.41.74.74,0,0,0-.41.56,1,1,0,0,0,.3,1,2.13,2.13,0,0,0,1.52.3,9.31,9.31,0,0,0,2.1-.42.08.08,0,0,0,.07,0l0-.06s.19,0,.2-.07.17,0,.17,0ZM337.79,405c0-.11.07-.25.33-.3h.09a.51.51,0,0,1,.41.15c.51.42.65,1.69.68,2.45l-.16-.09A3.78,3.78,0,0,1,337.79,405Zm-1.64,2.65A.7.7,0,0,1,336,407a.33.33,0,0,1,.2-.27c.51-.24,1.88.35,2.85.88C337.61,408,336.55,408,336.15,407.69Z" style="fill:#407BFF"></path><path d="M340.19,406.73l9-.56a.56.56,0,0,1,.63.5h0l.88,7.1a1.4,1.4,0,0,1-1.31,1.5c-3.14.15-4.65.06-8.61.28-2.43.14-7.22.66-10.58.33s-2.94-3.63-1.49-3.79c3.43-.39,8-2.91,10.13-4.83A2.24,2.24,0,0,1,340.19,406.73Z" style="fill:#263238"></path></g></g><g id="freepik--Table--inject-693"><polygon points="300.11 416 306.23 416 307.24 262.75 299.11 262.75 300.11 416" style="fill:#407BFF"></polygon><polygon points="299.1 263 299.26 287.73 300.1 416 306.23 416 307.07 287.73 307.23 263 299.1 263" style="fill:#fff;opacity:0.4;isolation:isolate"></polygon><polygon points="299.1 263 299.26 288 307.07 288 307.23 263 299.1 263" style="opacity:0.2;isolation:isolate"></polygon><polygon points="235.07 416 241.19 416 252.2 262.75 244.07 262.75 235.07 416" style="fill:#407BFF"></polygon><polygon points="235.06 416 241.19 416 251.66 270.37 252.2 263 244.07 263 243.63 270.37 235.06 416" style="fill:#fff;opacity:0.5;isolation:isolate"></polygon><polygon points="243.63 270 251.66 270 252.2 263 244.07 263 243.63 270" style="opacity:0.2;isolation:isolate"></polygon><polygon points="365.15 416 371.27 416 362.27 262.75 354.14 262.75 365.15 416" style="fill:#407BFF"></polygon><polygon points="354.14 263 354.68 270.37 365.15 416 371.27 416 362.71 270.37 362.27 263 354.14 263" style="fill:#fff;opacity:0.5;isolation:isolate"></polygon><polygon points="362.27 263 354.14 263 354.68 270 362.71 270 362.27 263" style="opacity:0.2;isolation:isolate"></polygon><path d="M239.79,258.92H366.55a2.16,2.16,0,0,1,2.16,2.16v5.51a0,0,0,0,1,0,0H237.63a0,0,0,0,1,0,0v-5.51A2.16,2.16,0,0,1,239.79,258.92Z" transform="translate(606.34 525.51) rotate(180)" style="fill:#407BFF"></path><path d="M239.79,258.92H366.55a2.16,2.16,0,0,1,2.16,2.16v5.51a0,0,0,0,1,0,0H237.63a0,0,0,0,1,0,0v-5.51A2.16,2.16,0,0,1,239.79,258.92Z" transform="translate(606.34 525.51) rotate(180)" style="fill:#fff;opacity:0.6000000000000001;isolation:isolate"></path><rect x="237.63" y="258.92" width="131.08" height="3.84" transform="translate(606.34 521.67) rotate(180)" style="opacity:0.2;isolation:isolate"></rect><path d="M233.83,259.92H372.51a2.17,2.17,0,0,0,2.16-2.17h0a2.16,2.16,0,0,0-2.16-2.16H233.83a2.16,2.16,0,0,0-2.16,2.16h0A2.17,2.17,0,0,0,233.83,259.92Z" style="fill:#407BFF"></path><path d="M233.83,259.92H372.51a2.17,2.17,0,0,0,2.16-2.17h0a2.16,2.16,0,0,0-2.16-2.16H233.83a2.16,2.16,0,0,0-2.16,2.16h0A2.17,2.17,0,0,0,233.83,259.92Z" style="fill:#fff;opacity:0.6000000000000001;isolation:isolate"></path></g></svg>