<?xml version="1.0" encoding="utf-8"?>
<!-- Generator: Adobe Illustrator 16.0.0, SVG Export Plug-In . SVG Version: 6.00 Build 0)  -->
<!DOCTYPE svg PUBLIC "-//W3C//DTD SVG 1.1//EN" "http://www.w3.org/Graphics/SVG/1.1/DTD/svg11.dtd" [
	<!ENTITY ns_extend "http://ns.adobe.com/Extensibility/1.0/">
	<!ENTITY ns_ai "http://ns.adobe.com/AdobeIllustrator/10.0/">
	<!ENTITY ns_graphs "http://ns.adobe.com/Graphs/1.0/">
	<!ENTITY ns_vars "http://ns.adobe.com/Variables/1.0/">
	<!ENTITY ns_imrep "http://ns.adobe.com/ImageReplacement/1.0/">
	<!ENTITY ns_sfw "http://ns.adobe.com/SaveForWeb/1.0/">
	<!ENTITY ns_custom "http://ns.adobe.com/GenericCustomNamespace/1.0/">
	<!ENTITY ns_adobe_xpath "http://ns.adobe.com/XPath/1.0/">
]>
<svg version="1.1" id="Layer_1" xmlns:x="&ns_extend;" xmlns:i="&ns_ai;" xmlns:graph="&ns_graphs;"
	 xmlns="http://www.w3.org/2000/svg" xmlns:xlink="http://www.w3.org/1999/xlink" x="0px" y="0px" width="152.413px"
	 height="229.982px" viewBox="0 0 152.413 229.982" enable-background="new 0 0 152.413 229.982" xml:space="preserve">
<metadata>
	<sfw  xmlns="&ns_sfw;">
		<slices></slices>
		<sliceSourceBounds  height="229.982" width="152.425" x="262.403" y="-363.012" bottomLeftOrigin="true"></sliceSourceBounds>
	</sfw>
</metadata>
<g id="Dominik">
	<g>
		<path fill="#261F41" d="M41.932,12.397c-0.3,0.281-0.6,0.582-0.899,0.894c-7.275,7.23-11.059,15.823-11.351,25.778
			c0.003,0.128,0.003,0.253,0,0.377v30.116v19.839l7.693,0.268V69.831v-6.694l0.536-11.515c0.066-2.576,2.504-5.306,4.438-7.127
			c1.934-1.823,6.347-2.174,8.813-2.27h0.4v-5.607l49.263-0.059v5.655c2.7,0.063,8.029,1.439,9.963,3.262
			c1.934,1.823,3.684,3.395,3.75,5.971l0.487,11.691v6.694V89.67h7.063V69.831V38.395c-0.502-9.961-4.568-18.538-12.199-25.73
			c-0.4-0.377-0.816-0.755-1.25-1.133c-1.967-1.726-4.033-3.234-6.199-4.522c-6.268-3.77-17.448-5.734-25.315-5.891
			c-0.3,0-0.6,0-0.9,0C64.692,1.119,50.099,4.698,41.932,12.397z"/>
		<path fill="#99D1A4" d="M152.381,229.265c-0.189-10.016-2.559-20.078-6.947-29.129c-4.628-9.547-11.515-18.088-19.695-24.963
			c-2.485-2.088-5.061-4.063-7.776-5.857c0,0.029,0,0.059,0,0.086c-7.182-4.694-14.887-8.079-23.3-10.018c0,2.227,0,4.453,0,6.68
			c0,5.273-2.517,10.068-6.574,13.465c-3.994,3.344-9.224,4.709-14.415,4.066c-5.314-0.658-10.053-3.729-12.994-8.086
			c-2.208-3.271-2.916-6.938-2.916-10.795c0-1.776,0-3.553,0-5.33c-21.269,4.9-39.952,19.833-49.858,38.846
			c-5.123,9.832-7.658,20.744-7.917,31.752c9.616,0,19.231,0,28.847,0c8.466,0,16.932,0,25.396,0c9.063,0,18.125,0,27.188,0
			c8.748,0,17.496,0,26.244,0c8.783,0,17.567,0,26.351,0c6.133,0,12.266,0,18.399,0
			C152.405,229.744,152.395,229.503,152.381,229.265C152.373,228.802,152.388,229.503,152.381,229.265z"/>
		<rect x="53.583" y="168.232" fill="#FDCB81" width="45.334" height="18.5"/>
		<path fill="#FDCB81" d="M115.026,97.347L115.026,97.347l0.001-4.765V81.656V62.355V54.27v-1.49
			c-0.067-1.671-0.417-3.21-1.051-4.622c-0.633-1.348-1.533-2.583-2.699-3.705c-2.2-2.117-4.784-3.289-7.75-3.515h-2.351h-0.05
			v-0.047v-8.039h-8.4h-33.05h-8.45v8.086v0.049h-0.05h-2.35c-2.967,0.224-5.55,1.396-7.75,3.515c-1.2,1.154-2.101,2.438-2.7,3.851
			c-0.634,1.378-0.967,2.87-1,4.475v1.443v8.086v19.301v10.926v4.163l-0.001-0.001v11.649c0.267,9.914,4.05,18.385,11.35,25.411
			c3.066,2.953,6.084,5.166,9.051,6.643c0.001,0,0.001,0,0.001,0v3.392v0.049v14.776c0.1,4.686,1.899,8.71,5.399,12.08
			c0.934,0.898,1.9,1.67,2.9,2.311c2.967,1.926,6.35,2.887,10.149,2.887c3.801,0,7.184-0.961,10.15-2.887
			c1-0.641,1.967-1.412,2.9-2.311c2.8-2.662,4.517-5.808,5.149-9.433c0.134-0.866,0.217-1.748,0.25-2.646v-14.776v-3.44
			c3.366-1.861,6.365-4.074,8.999-6.643c6.967-6.706,10.75-14.631,11.351-23.775c0.066-0.609,0.1-1.476,0.1-2.598
			c0-1.157-0.033-2.039-0.1-2.648V97.347z"/>
	</g>
	<path fill="#C9A168" d="M76.19,151.8c6.7,0,12.851-1.518,18.45-4.551v-4c-5.599,3.033-11.75,4.551-18.45,4.551
		c-6.6,0-12.75-1.518-18.449-4.551v4C63.44,150.282,69.591,151.8,76.19,151.8"/>
	<path fill="#FDCB81" d="M47.341,40.499h-0.4c-2.467,0.1-4.666,1.117-6.6,3.051s-2.934,4.266-3,7v18.9v21.049v8.35v11.102
		c0.033,0.865,0.083,1.732,0.15,2.6c0.8,9.199,4.533,17.133,11.199,23.799c3.067,3.068,6.084,5.367,9.051,6.9
		c5.699,3.033,11.85,4.551,18.449,4.551c6.7,0,12.851-1.518,18.45-4.551c3.367-1.934,6.367-4.232,9-6.9
		c6.967-6.967,10.75-15.199,11.352-24.699c0.066-0.633,0.1-1.533,0.1-2.699c0-1.201-0.033-2.117-0.1-2.75v-7.352v-8.35V69.45v-18.9
		c-0.068-2.734-1.068-5.066-3-7c-1.934-1.934-4.25-2.934-6.951-3v-6h-0.699c-3.834-0.101-7.133-1.551-9.9-4.351
		c-0.133-0.134-0.268-0.267-0.4-0.399c-0.033,0-0.066,0.016-0.1,0.049c-1.167,1.168-2.383,2.268-3.65,3.301
		c-6.067,4.699-13.067,7.15-21,7.35H47.341"/>
	<path fill="#FDCB81" d="M47.341,34.872v8.561h21.95c7.933-0.286,14.933-3.813,21-10.575c1.267-1.487,2.483-3.068,3.65-4.749
		c0.033-0.049,0.066-0.07,0.1-0.07c-0.4-0.625-0.766-1.248-1.1-1.872c-4.967,5.564-10.699,8.465-17.199,8.706H47.341"/>
	<g transform="matrix( 1, 0, 0, 1, 621.35,33.3) ">
		<g>
			<g id="Layer0_3_MEMBER_0_MEMBER_0_FILL_2_">
				<path fill="#C9A168" d="M-549.559,97.949c-0.467,0-0.867,0.168-1.2,0.5c-0.333,0.334-0.5,0.734-0.5,1.201v0.049
					c0,0.467,0.167,0.867,0.5,1.201c0.333,0.332,0.733,0.5,1.2,0.5h8.85c0.467,0,0.867-0.168,1.2-0.5
					c0.333-0.334,0.5-0.734,0.5-1.201V99.65c0-0.467-0.167-0.867-0.5-1.201c-0.333-0.332-0.733-0.5-1.2-0.5"/>
				<path fill="#FAE5BE" d="M-559.109,83.099c0.033,1.268,0.217,2.482,0.55,3.65h26.8c0.367-1.234,0.55-2.551,0.55-3.951
					c0-0.033,0-0.082,0-0.148c0-0.168,0-0.301,0-0.4h-27.899V83.099z"/>
				<path fill="#EB4639" d="M-550.509,93.15c-0.566,0.6-1.033,1.232-1.4,1.898c1.934,1.068,4.101,1.617,6.5,1.65
					c0.033,0,0.101,0,0.2,0c0.167,0,0.3,0,0.4,0c2.333-0.033,4.467-0.582,6.399-1.65c-0.333-0.666-0.8-1.299-1.399-1.898
					c-0.2-0.201-0.417-0.385-0.65-0.551c-1.3-1.066-2.816-1.617-4.55-1.65c-0.033,0-0.083,0-0.15,0c-0.066,0-0.133,0-0.199,0
					c-1.7,0.033-3.217,0.584-4.551,1.65C-550.109,92.765-550.309,92.949-550.509,93.15z"/>
				<path fill="#4C3126" d="M-551.91,95.049c0.367-0.666,0.834-1.299,1.4-1.898c0.2-0.201,0.4-0.385,0.6-0.551
					c1.334-1.066,2.851-1.617,4.551-1.65c0.066,0,0.133,0,0.199,0c0.067,0,0.117,0,0.15,0c1.733,0.033,3.25,0.584,4.55,1.65
					c0.233,0.166,0.45,0.35,0.65,0.551c0.6,0.6,1.066,1.232,1.399,1.898c0.667-0.398,1.317-0.85,1.95-1.35
					c0.4-0.332,0.783-0.684,1.15-1.049c1.733-1.734,2.917-3.701,3.55-5.9h-26.8c0.6,2.199,1.783,4.166,3.55,5.9
					c0.367,0.365,0.75,0.717,1.15,1.049C-553.226,94.199-552.576,94.65-551.91,95.049z"/>
			</g>
		</g>
	</g>
	<g transform="matrix( 1, 0, 0, 1, 441.75,-259.7) ">
		<g>
			<g id="Layer0_3_MEMBER_0_MEMBER_2_FILL_2_">
				<path fill="#C77036" d="M-359.81,358.9h-0.05h-11.25h-0.1v0.049c0,0.033,0.017,0.084,0.05,0.15
					c0.134,1.301,0.667,2.416,1.6,3.35c1.101,1.1,2.45,1.65,4.051,1.65h0.149c1.5-0.033,2.8-0.584,3.9-1.65
					C-360.526,361.449-359.976,360.265-359.81,358.9z"/>
				<path fill="#E07E3C" d="M-359.859,329.15h-11.45v29.35l0.051,0.4h0.05h0.1h11.25v-0.15V329.15z"/>
			</g>
		</g>
	</g>
	<g transform="matrix( 1, 0, 0, 1, 441.35,-259.7) ">
		<g>
			<g id="Layer0_3_MEMBER_1_FILL_2_">
				<path fill="#010101" fill-opacity="0.102" d="M-326.358,357.949v-4.75V324.9h-27.701c-0.767-0.033-1.417,0.217-1.95,0.75
					l-1,1.049h-16.3l-0.95-1.049c-0.566-0.533-1.217-0.783-1.95-0.75h-27.8v28.299v4.75c0.193,0.033,0.394,0.051,0.6,0.051h25.601
					c0.566,0,1.083-0.15,1.55-0.451c0.467-0.332,0.783-0.75,0.95-1.25l6.6-19.5h7.101l6.6,19.5c0.2,0.5,0.533,0.918,1,1.25
					c0.434,0.301,0.917,0.451,1.45,0.451h25.701C-326.688,358-326.522,357.982-326.358,357.949z"/>
			</g>
		</g>
	</g>
	<g transform="matrix( 1, 0, 0, 1, 441.35,-259.9) ">
		<g>
			<g id="Layer0_3_MEMBER_2_FILL_2_">
				<path fill="#261F41" d="M-381.209,323.049c-0.467-0.467-1.033-0.699-1.7-0.699h-9.449c-0.667,0-1.233,0.232-1.7,0.699
					s-0.7,1.033-0.7,1.699c0,0.668,0.233,1.234,0.7,1.701s1.033,0.699,1.7,0.699h9.449c0.667,0,1.233-0.232,1.7-0.699
					s0.7-1.033,0.7-1.701C-380.509,324.083-380.743,323.516-381.209,323.049 M-336.21,323.049c-0.467-0.467-1.033-0.699-1.699-0.699
					h-9.449c-0.668,0-1.234,0.232-1.701,0.699s-0.7,1.033-0.7,1.699c0,0.668,0.233,1.234,0.7,1.701s1.033,0.699,1.701,0.699h9.449
					c0.666,0,1.232-0.232,1.699-0.699s0.701-1.033,0.701-1.701C-335.509,324.083-335.743,323.516-336.21,323.049z"/>
			</g>
		</g>
	</g>
	<path fill="#FDCB81" d="M94.4,165.282c0.133-0.9,0.217-1.818,0.25-2.75v-15.352c-5.5,3.033-11.65,4.551-18.45,4.551
		c-6.767,0-12.917-1.518-18.45-4.551v15.352c0.1,4.866,1.9,9.049,5.4,12.549c0.934,0.934,1.9,1.734,2.9,2.4H86.35
		c1-0.666,1.967-1.467,2.9-2.4C92.051,172.316,93.767,169.048,94.4,165.282"/>
	<path fill="#E2B574" d="M76.2,180.482c3.8,0,7.183-1,10.149-3H66.051C69.017,179.482,72.4,180.482,76.2,180.482"/>
	<path fill="#0E331F" d="M57.75,147.181v-0.049c-0.934,0.766-1.733,1.482-2.4,2.15c-3.5,3.533-5.883,7.365-7.149,11.5
		c-0.899,2.799-1.384,5.667-1.45,8.6v20.35c0.066,1.434,0.566,2.633,1.5,3.6l0.25,0.25c1.033,0.967,2.283,1.451,3.75,1.451
		c1.533,0,2.834-0.533,3.9-1.602c1.033-1,1.566-2.232,1.6-3.699v-20v-5.6v-1.6V147.181 M97,149.282
		c-0.799-0.801-1.582-1.5-2.35-2.102v15.352v7.2v20c0.066,1.467,0.6,2.699,1.6,3.699c1.066,1.068,2.367,1.602,3.9,1.602
		c1.467,0,2.717-0.484,3.75-1.451l-9.25,9.25v0.1l9.6-9.648c0.9-1,1.367-2.184,1.4-3.551v-20.35c-0.033-3-0.5-5.868-1.4-8.6
		C102.882,156.581,100.466,152.749,97,149.282z"/>
	<path fill="#BADFC0" d="M86.35,177.482c-2.967,2-6.35,3-10.149,3s-7.184-1-10.149-3c-1-0.666-1.967-1.467-2.9-2.4
		c-3.5-3.5-5.301-7.684-5.4-12.549v1.6l6.35,65.85h24.201l6.099-64.7c-0.633,3.766-2.349,7.034-5.15,9.799
		C88.316,176.015,87.35,176.816,86.35,177.482z"/>
	<path fill="#1D9A57" d="M100.15,195.033c-1.533,0-2.834-0.533-3.9-1.602c-1-1-1.533-2.232-1.6-3.699v13.1l9.25-9.25
		C102.867,194.548,101.617,195.033,100.15,195.033 M56.15,193.431c-1.066,1.068-2.367,1.602-3.9,1.602
		c-1.467,0-2.717-0.484-3.75-1.451l9.25,9.25v-13.1C57.717,191.199,57.184,192.431,56.15,193.431 M48.2,160.782l-1.45,0.6
		c-6.699,2.766-13,6.618-18.9,11.549l20.4,20.4c-0.934-0.967-1.434-2.166-1.5-3.6v-20.35
		C46.816,166.449,47.301,163.581,48.2,160.782 M105.65,161.382l-1.4-0.6c0.9,2.732,1.367,5.6,1.4,8.6v20.35
		c-0.033,1.367-0.5,2.551-1.4,3.551l0.85-0.852c0.268-0.266,0.533-0.533,0.801-0.799c1.633-1.668,3.283-3.334,4.949-5l13.701-13.65
		C118.783,168.181,112.484,164.315,105.65,161.382z"/>
	<path fill="#4CBA71" d="M104.25,193.283l-9.6,9.648v27.051h57.75c0-1.066-0.033-1.85-0.1-2.35
		c-0.9-19.168-8.316-35.717-22.25-49.65c-1.768-1.768-3.6-3.434-5.5-5l-13.701,13.65c-1.666,1.666-3.316,3.332-4.949,5
		c-0.268,0.266-0.533,0.533-0.801,0.799L104.25,193.283 M57.75,229.982v-27.15l-9.25-9.25l-0.25-0.25l-20.4-20.4
		c-1.899,1.568-3.75,3.25-5.549,5.051c-14.4,14.4-21.834,31.732-22.301,52H57.75z"/>
	<path fill="#99D1A4" d="M57.75,169.732v20v13.1v27.15h6.35l-6.35-65.85V169.732 M94.65,162.532c-0.033,0.932-0.117,1.85-0.25,2.75
		l-6.099,64.7h6.349v-27.051v-0.1v-13.1v-20V162.532z"/>
	<polyline fill="#E2B574" points="28.925,90.701 28.925,69.652 25.975,69.652 25.975,90.701 28.925,90.701 	"/>
	<path fill="#FDCB81" d="M25.975,69.652h-2.8c-2.833,0.1-5.233,1.133-7.2,3.1c-2.033,2.033-3.05,4.5-3.05,7.4v0.299
		c0.066,2.801,1.083,5.184,3.05,7.15c2.067,2.066,4.55,3.1,7.45,3.1h2.55V69.652z"/>
	<polyline fill="#E2B574" points="126.255,69.652 123.306,69.652 123.306,90.701 126.255,90.701 126.255,69.652 	"/>
	<path fill="#FDCB81" d="M128.906,69.652h-2.65v21.049h2.9c2.801-0.1,5.184-1.133,7.15-3.1c1.768-1.768,2.768-3.75,3-5.949l0.1-1.75
		c-0.1-2.867-1.133-5.25-3.1-7.15C134.24,70.686,131.773,69.652,128.906,69.652"/>
	<g>
		<path fill="#443C59" d="M28.991,60.149l-4.6,4.601h4.6v1.5v6.101v21.049l8.3,8.301V65.45v-8.4v-1.5
			c0.033-1.666,0.367-3.217,1-4.65L28.991,60.149"/>
		<path fill="#261F41" d="M119.041,16.851l-6.05,6L101.041,34.8v8.35V43.2h0.05h2.351c2.967,0.232,5.55,1.449,7.75,3.65
			c1.166,1.166,2.066,2.449,2.699,3.85c0.634,1.467,0.984,3.066,1.051,4.8v1.55v8.4v36.35l8.399-8.4V72.351v-6.9v-0.7h4.601
			l-4.601-4.601h4.601l-4.601-4.6v-34.4L119.041,16.851"/>
		<path fill="#443C59" d="M119.041,16.851l-6.05-6.051v12.051L119.041,16.851z"/>
		<path fill="#261F41" d="M50.84,0l-21.85,21.851v12.949l-4.6,4.6h4.6V46.7v3.85v5l-4.6,4.6h4.6l9.3-9.25c0.6-1.467,1.5-2.799,2.7-4
			c2.2-2.199,4.783-3.416,7.75-3.649h2.35h0.05V43.2v-8.4h8.45h33.05h8.4l11.95-11.949V10.8V0H50.84z"/>
	</g>
	<g transform="matrix( 1, 0, 0, 1, 441.35,-259.7) ">
		<g>
			<g id="Layer0_3_MEMBER_3_FILL_2_">
				<path fill="#E2B574" d="M-373.66,332.9l-3.25-3.301c-0.133-0.1-0.267-0.15-0.399-0.15h-31.05c-0.101,0-0.233,0.051-0.4,0.15
					c-0.1,0.1-0.15,0.232-0.15,0.4v3.15l1.7,4.949h33.55V332.9"/>
				<path fill="#E2B574" d="M-321.559,329.599c-0.1-0.1-0.232-0.15-0.4-0.15h-31.049c-0.133,0-0.25,0.051-0.35,0.15l-3.051,3.051
					v5.449h33.35l1.65-4.699V330C-321.409,329.832-321.46,329.699-321.559,329.599z"/>
				<path fill="#261F41" d="M-312.159,325.349c-0.5-0.5-1.117-0.75-1.85-0.75h-40.05c-0.767-0.033-1.417,0.217-1.95,0.75l-1,1.051
					h-4.6h-7.101h-4.6l-0.95-1.051c-0.566-0.533-1.217-0.783-1.95-0.75h-40.05c-0.767,0-1.4,0.25-1.9,0.75
					c-0.533,0.533-0.8,1.166-0.8,1.9v3.6c0,0.768,0.267,1.416,0.8,1.949l5,2.9l0.851,2.4l6.399,17.9c0.2,0.5,0.518,0.916,0.95,1.25
					c0.467,0.299,0.983,0.449,1.55,0.449h25.601c0.566,0,1.083-0.15,1.55-0.449c0.467-0.334,0.783-0.75,0.95-1.25l6.6-16.201h7.101
					l6.6,16.201c0.2,0.5,0.533,0.916,1,1.25c0.434,0.299,0.917,0.449,1.45,0.449h25.701c0.533,0,1.033-0.15,1.5-0.449
					c0.432-0.334,0.75-0.75,0.949-1.25l6.4-17.9l0.85-2.4l5-2.9c0.533-0.533,0.816-1.182,0.85-1.949v-3.6
					C-311.376,326.482-311.659,325.849-312.159,325.349z M-373.66,338.099v1.1l-5.35,13.35c-0.066,0.135-0.15,0.234-0.25,0.301
					c-0.1,0.033-0.2,0.051-0.3,0.051h-22.05c-0.101,0-0.184-0.018-0.25-0.051c-0.101-0.066-0.184-0.166-0.25-0.301l-5.101-14.449
					l-1.7-4.949V330c0-0.168,0.051-0.301,0.15-0.4c0.167-0.1,0.3-0.15,0.4-0.15h31.05c0.133,0,0.267,0.051,0.399,0.15l3.25,3.301
					V338.099z M-321.409,333.4l-1.65,4.699l-5.1,14.449c-0.066,0.135-0.133,0.234-0.199,0.301c-0.135,0.033-0.25,0.051-0.352,0.051
					h-22.049c-0.1,0-0.184-0.018-0.25-0.051c-0.1-0.066-0.167-0.166-0.2-0.301l-5.2-12.75v-1.699v-5.449l3.051-3.051
					c0.1-0.1,0.217-0.15,0.35-0.15h31.049c0.168,0,0.301,0.051,0.4,0.15s0.15,0.232,0.15,0.4V333.4z"/>
				<path fill="#FDCB81" d="M-373.66,339.199v-1.1h-33.55l5.101,14.449c0.066,0.135,0.149,0.234,0.25,0.301
					c0.066,0.033,0.149,0.051,0.25,0.051h22.05c0.1,0,0.2-0.018,0.3-0.051c0.1-0.066,0.184-0.166,0.25-0.301L-373.66,339.199
					 M-328.71,352.9c0.102,0,0.217-0.018,0.352-0.051c0.066-0.066,0.133-0.166,0.199-0.301l5.1-14.449h-33.35v1.699l5.2,12.75
					c0.033,0.135,0.101,0.234,0.2,0.301c0.066,0.033,0.15,0.051,0.25,0.051H-328.71z"/>
			</g>
		</g>
	</g>
	<path fill="#4C3126" d="M57.65,78.149c0-0.871-0.327-1.611-0.981-2.223c-0.61-0.654-1.352-0.98-2.224-0.98
		c-0.871,0-1.612,0.326-2.223,0.98c-0.654,0.611-0.981,1.352-0.981,2.223"/>
	<path fill="#4C3126" d="M102.015,78.149c0-0.871-0.326-1.611-0.98-2.223c-0.611-0.654-1.352-0.98-2.225-0.98
		c-0.871,0-1.611,0.326-2.223,0.98c-0.654,0.611-0.98,1.352-0.98,2.223"/>
</g>
</svg>
