<svg xmlns="http://www.w3.org/2000/svg" width="187" height="215" viewBox="0 0 187 215"><g><g><path fill="#261f42" d="M186.705 174.565c-.025-30.477-14.66-57.531-37.276-74.547 7.401-10.717 8.462-18.937 8.462-34.394 0-10.102-1.977-19.455-5.506-27.752l7.068-5.832a.856.856 0 0 1 .204-.11l.985-.81c3.746-3.09 5.875-7.07 6.384-11.938.145-1.494.11-2.941-.1-4.344-.484-3.062-1.785-5.88-3.909-8.46-1.276-1.543-2.705-2.823-4.29-3.838-2.238-1.38-4.746-2.223-7.52-2.532-4.446-.385-8.41.702-11.89 3.256l-2.177 1.795-6.88 5.674C120.506 4.122 108.793.378 96.142.378c-12.639 0-24.438 3.74-34.306 10.34.01-.005.017-.012.025-.018l-7.05-5.76a.75.75 0 0 1-.148-.178l-.987-.81C49.914.884 45.598-.43 40.726.018c-2.817.327-5.337 1.207-7.565 2.64a4.675 4.675 0 0 0-.846.602c-1.207.856-2.33 1.918-3.368 3.186-3.072 3.764-4.39 8.035-3.949 12.824.49 4.438 2.328 8.115 5.513 11.027l2.185 1.788L39.45 37.6c-3.676 8.365-5.745 17.81-5.745 28.024 0 12.58 2.392 22.148 7.548 31.589C16.414 113.967.072 142.356.043 174.565H.041v40.327H186.71v-40.327z"/></g></g></svg>