<svg xmlns="http://www.w3.org/2000/svg" width="154" height="234" viewBox="0 0 154 234"><g><g><path fill="#e2b574" d="M47.635 14.948c-.3.287-.6.594-.898.913-7.276 7.384-11.06 16.16-11.352 26.326.003.131.003.26 0 .386v51.018h2.95V66.493l.537-11.76c.066-2.63 2.503-5.419 4.437-7.279 1.933-1.86 6.347-2.22 8.814-2.319h.4V39.41l49.262-.06v5.776c2.702.063 8.03 1.47 9.963 3.331 1.934 1.861 3.684 3.467 3.75 6.097l.489 11.94v27.098h2.949V41.225c-.502-10.173-4.571-18.932-12.2-26.277a44.488 44.488 0 0 0-1.25-1.157 41.738 41.738 0 0 0-6.201-4.619c-6.265-3.85-13.332-5.856-21.2-6.016h-.9c-11.532 0-21.382 3.93-29.55 11.792z"/></g><g><path fill="#514c68" d="M153.342 233.186c-.19-10.017-2.56-20.078-6.947-29.129-4.63-9.546-11.516-18.087-19.696-24.963-2.486-2.088-5.06-4.062-7.777-5.857v.087c-7.182-4.696-14.887-8.08-23.3-10.02v6.68c0 5.274-2.516 10.068-6.573 13.465-3.994 3.343-9.225 4.71-14.416 4.067-5.314-.658-10.053-3.728-12.994-8.085-2.207-3.273-2.916-6.939-2.916-10.797v-5.33c-21.268 4.901-39.952 19.832-49.858 38.846-5.123 9.832-7.658 20.744-7.917 31.752h152.425a28.562 28.562 0 0 0-.031-.715c-.01-.465.006.236 0 0z"/></g><g><path fill="#fcca81" d="M115.986 101.268V56.7c-.066-1.671-.416-3.21-1.05-4.622-.634-1.348-1.534-2.583-2.7-3.706-2.199-2.117-4.783-3.29-7.75-3.514h-2.4v-8.087H52.186v8.136h-2.399c-2.967.223-5.55 1.395-7.75 3.514-1.2 1.155-2.102 2.439-2.7 3.85-.635 1.379-.968 2.87-1 4.475v43.919l-.002-.001v11.65c.267 9.914 4.05 18.385 11.35 25.41 3.067 2.954 6.084 5.167 9.051 6.644v18.216c.1 4.686 1.9 8.71 5.4 12.079.934.899 1.901 1.67 2.901 2.31 2.967 1.927 6.35 2.889 10.148 2.889 3.801 0 7.184-.962 10.151-2.888 1-.641 1.966-1.412 2.9-2.311 2.801-2.662 4.518-5.807 5.15-9.432.133-.866.217-1.748.25-2.647v-18.216c3.366-1.862 6.366-4.075 8.998-6.643 6.967-6.706 10.75-14.631 11.352-23.775.066-.61.1-1.476.1-2.598 0-1.157-.034-2.04-.1-2.648z"/></g><g><path fill="#261f42" d="M.96 233.902l28.1-28.1v28.1zm124.3-28.1l28.1 28.1h-28.1zm-29.65-54.05c-5.6 3.033-11.75 4.55-18.449 4.55-6.6 0-12.75-1.517-18.45-4.55v-4.6c5.7 3.034 11.85 4.55 18.45 4.55 6.7 0 12.85-1.516 18.45-4.55z"/></g><g><path fill="#514c68" d="M125.26 233.902v-28.1l28.1 28.1c0-.767-.033-1.55-.1-2.35-.9-19.133-8.315-35.683-22.25-49.65-9-9-19.116-15.267-30.35-18.8-1.667-.5-3.35-.95-5.05-1.35v-10c-5.6 3.033-11.75 4.55-18.45 4.55-6.6 0-12.75-1.517-18.45-4.55v10c-1.7.4-3.383.85-5.05 1.35-11.2 3.533-21.333 9.8-30.4 18.8-14.466 14.533-21.9 31.866-22.3 52l28.1-28.1v28.1z"/></g><g><path fill="#e2b574" d="M115.96 101.702l-12.199 12.2H96.71l-10.799-10.8h-17.5l-10.801 10.8h-7.049l-12.25-12.15v12.1c.266 10.3 4.049 19.1 11.35 26.4 3.067 3.067 6.082 5.367 9.049 6.9 5.701 3.033 11.851 4.55 18.451 4.55 6.699 0 12.85-1.517 18.449-4.55 3.368-1.933 6.368-4.233 9-6.9 6.967-6.967 10.75-15.2 11.35-24.7.067-.633.101-1.534.101-2.7 0-1.2-.034-2.117-.101-2.75z"/></g><g><path fill="#e2b574" d="M47.76 75.702h58.75l9.45-9.45H38.31z"/></g><g><path fill="#e2b574" d="M106.71 12.702c-.399-.4-.816-.8-1.25-1.2a41.876 41.876 0 0 0-6.199-4.8c-6.268-4-13.334-6.083-21.2-6.25h-.9c-11.533 0-21.384 4.083-29.551 12.25-.299.3-.599.617-.9.95-7.274 7.67-11.058 16.786-11.35 27.35a8.89 8.89 0 0 1 0 .4v53h2.951V54.052c.067-2.733 1.067-5.067 3-7 1.932-1.933 4.133-2.95 6.6-3.05h.4v-5.95h57.7v6c2.699.067 5.016 1.067 6.949 3 1.934 1.933 2.934 4.267 3 7V94.402h2.951V40.002c-.504-10.57-4.57-19.669-12.201-27.3z"/></g><g><path fill="#fcca81" d="M35.36 73.353v21.05h-2.55c-2.9 0-5.383-1.034-7.45-3.101-1.966-1.967-2.982-4.35-3.05-7.15v-.3c0-2.9 1.017-5.366 3.05-7.4 1.967-1.966 4.368-3 7.2-3.1zm86.2 0c2.867 0 5.334 1.033 7.4 3.099 1.967 1.9 3 4.284 3.1 7.15l-.1 1.75c-.232 2.2-1.232 4.183-3 5.95-1.967 1.967-4.35 3-7.15 3.1h-2.9v-21.05zm-5.6 28.349l-12.2 12.2h-7.05l-10.8-10.8h-17.5l-10.8 10.8h-7.05l-12.25-12.15v-35.5l9.45 9.45h58.75l9.45-9.45zm-9.95-57.65c2.7.067 5.018 1.067 6.95 3 1.934 1.934 2.934 4.268 3 7v12.2H38.31v-12.2c.068-2.732 1.068-5.066 3-7 1.933-1.933 4.135-2.95 6.6-3.05h.4v-5.95h57.7z"/></g><g><path fill="#c9a167" d="M71.56 138.102c.334.333.734.5 1.2.5h8.85c.468 0 .868-.167 1.2-.5.334-.334.5-.733.5-1.2v-.05c0-.467-.166-.867-.5-1.2a1.637 1.637 0 0 0-1.2-.5h-8.85c-.466 0-.866.168-1.2.5-.332.334-.5.734-.5 1.2v.05c0 .468.168.867.5 1.2z"/></g><g><path fill="#eb4539" d="M77.31 128.152h-.351a7.322 7.322 0 0 0-4.547 1.65 8.632 8.632 0 0 0-.602.55 9.24 9.24 0 0 0-1.398 1.9c1.931 1.067 4.098 1.617 6.5 1.65H77.51c2.334-.033 4.468-.583 6.402-1.65-.335-.667-.802-1.3-1.402-1.9-.2-.2-.416-.384-.65-.55-1.3-1.067-2.816-1.617-4.55-1.65z"/></g><g><path fill="#fbe5be" d="M63.21 120.302c.033 1.268.217 2.483.551 3.65h26.8c.366-1.233.549-2.55.549-3.95v-.55h-27.9z"/></g><g><path fill="#4b3025" d="M68.46 130.902c.634.5 1.283.95 1.951 1.35.366-.667.832-1.3 1.4-1.9.2-.2.399-.384.6-.55a7.325 7.325 0 0 1 4.549-1.65h.351c1.733.033 3.25.583 4.549 1.65.234.166.451.35.651.55.599.6 1.066 1.233 1.4 1.9.666-.4 1.317-.85 1.949-1.35.401-.333.784-.684 1.151-1.05 1.732-1.733 2.916-3.7 3.55-5.9h-26.8c.599 2.2 1.783 4.167 3.55 5.9.366.366.75.717 1.149 1.05z"/></g><g><path fill="#c66f36" d="M71.51 103.103c.1 1.366.65 2.55 1.65 3.55 1.1 1.098 2.45 1.648 4.05 1.648h.15c1.5-.032 2.8-.582 3.9-1.648a6.177 6.177 0 0 0 1.65-3.55h-.05z"/></g><g><path fill="#e07e3d" d="M82.86 75.702v-2.35H71.411v29.35l.05.4h11.4z"/></g><g><path fill="#4b3025" d="M56.36 77.353c-.467.5-1.033.75-1.699.75-.668 0-1.235-.25-1.7-.75-.5-.467-.75-1.033-.75-1.7 0-.668.25-1.235.75-1.7.465-.5 1.032-.75 1.7-.75.666 0 1.232.25 1.7.75.5.465.75 1.032.75 1.7 0 .666-.25 1.232-.75 1.7zm45 0c-.467.5-1.033.75-1.699.75-.668 0-1.235-.25-1.7-.75-.5-.467-.75-1.033-.75-1.7 0-.668.25-1.235.75-1.7.465-.5 1.032-.75 1.7-.75.666 0 1.232.25 1.7.75.5.465.75 1.032.75 1.7 0 .666-.25 1.232-.75 1.7z"/></g><g><path fill="#4b3025" d="M106.136 68.253c.467-.467.7-1.033.7-1.701 0-.666-.233-1.233-.7-1.7a2.314 2.314 0 0 0-1.7-.701h-9.45c-.666 0-1.233.235-1.7.702a2.315 2.315 0 0 0-.7 1.699c0 .668.234 1.234.7 1.7a2.315 2.315 0 0 0 1.7.7h9.45c.667 0 1.233-.232 1.7-.7z"/></g><g><path fill="#4b3025" d="M61.136 68.253c.467-.467.7-1.033.7-1.701 0-.666-.233-1.233-.7-1.7a2.314 2.314 0 0 0-1.7-.701h-9.45c-.666 0-1.233.235-1.7.702a2.315 2.315 0 0 0-.7 1.699c0 .668.234 1.234.7 1.7a2.315 2.315 0 0 0 1.7.7h9.45c.667 0 1.233-.232 1.7-.7z"/></g><g><path fill="#0c5471" d="M57.136 75.651c0-.666-.25-1.232-.75-1.699-.467-.5-1.033-.75-1.7-.75-.666 0-1.234.25-1.7.75-.5.467-.75 1.033-.75 1.7s.25 1.233.75 1.7c.466.5 1.034.75 1.7.75.667 0 1.233-.25 1.7-.75.5-.467.75-1.033.75-1.7z"/></g><g><path fill="#0c5471" d="M101.386 73.952c-.467-.5-1.033-.75-1.7-.75-.666 0-1.234.25-1.7.75-.5.467-.75 1.033-.75 1.7s.25 1.234.75 1.7c.466.5 1.034.75 1.7.75.667 0 1.233-.25 1.7-.75.5-.466.75-1.033.75-1.7s-.25-1.233-.75-1.7z"/></g></g></svg>