<?xml version="1.0" encoding="utf-8"?>
<!-- Generator: Adobe Illustrator 16.0.0, SVG Export Plug-In . SVG Version: 6.00 Build 0)  -->
<!DOCTYPE svg PUBLIC "-//W3C//DTD SVG 1.1//EN" "http://www.w3.org/Graphics/SVG/1.1/DTD/svg11.dtd" [
	<!ENTITY ns_extend "http://ns.adobe.com/Extensibility/1.0/">
	<!ENTITY ns_ai "http://ns.adobe.com/AdobeIllustrator/10.0/">
	<!ENTITY ns_graphs "http://ns.adobe.com/Graphs/1.0/">
	<!ENTITY ns_vars "http://ns.adobe.com/Variables/1.0/">
	<!ENTITY ns_imrep "http://ns.adobe.com/ImageReplacement/1.0/">
	<!ENTITY ns_sfw "http://ns.adobe.com/SaveForWeb/1.0/">
	<!ENTITY ns_custom "http://ns.adobe.com/GenericCustomNamespace/1.0/">
	<!ENTITY ns_adobe_xpath "http://ns.adobe.com/XPath/1.0/">
]>
<svg version="1.1" id="Layer_1" xmlns:x="&ns_extend;" xmlns:i="&ns_ai;" xmlns:graph="&ns_graphs;"
	 xmlns="http://www.w3.org/2000/svg" xmlns:xlink="http://www.w3.org/1999/xlink" x="0px" y="0px" width="152.399px"
	 height="233.051px" viewBox="0 0 152.399 233.051" enable-background="new 0 0 152.399 233.051" xml:space="preserve">
<metadata>
	<sfw  xmlns="&ns_sfw;">
		<slices></slices>
		<sliceSourceBounds  height="233.051" width="152.425" x="262.403" y="-363.059" bottomLeftOrigin="true"></sliceSourceBounds>
	</sfw>
</metadata>
<g id="Jan">
	<g>
		<path fill="#F6D71D" d="M46.675,14.097c-0.3,0.287-0.6,0.594-0.899,0.913C38.5,22.394,34.717,31.169,34.425,41.336
			c0.003,0.131,0.003,0.259,0,0.386v30.757v20.261h2.95V72.479v-6.837l0.536-11.76c0.066-2.631,2.504-5.419,4.438-7.279
			c1.934-1.861,6.347-2.221,8.813-2.318h0.4v-5.727l49.263-0.06v5.775c2.7,0.063,8.029,1.47,9.963,3.331s3.684,3.467,3.75,6.098
			l0.487,11.939v6.837v20.261h2.949V72.479V40.374c-0.502-10.173-4.569-18.933-12.199-26.277c-0.4-0.386-0.816-0.771-1.25-1.157
			c-1.967-1.763-4.033-3.303-6.2-4.619c-6.267-3.85-13.333-5.855-21.2-6.016c-0.3,0-0.6,0-0.9,0
			C64.691,2.305,54.842,6.234,46.675,14.097"/>
		<path fill="#D6E7F7" d="M152.381,232.335c-0.189-10.017-2.559-20.078-6.947-29.129c-4.628-9.547-11.515-18.088-19.695-24.964
			c-2.485-2.088-5.061-4.063-7.776-5.857c0,0.029,0,0.059,0,0.087c-7.182-4.694-14.887-8.079-23.3-10.019c0,2.227,0,4.453,0,6.68
			c0,5.274-2.517,10.068-6.574,13.465c-3.994,3.344-9.224,4.71-14.415,4.067c-5.314-0.659-10.053-3.729-12.994-8.086
			c-2.208-3.272-2.916-6.938-2.916-10.796c0-1.776,0-3.553,0-5.33c-21.269,4.9-39.952,19.832-49.858,38.846
			c-5.123,9.832-7.658,20.744-7.917,31.752c9.616,0,19.231,0,28.847,0c8.466,0,16.932,0,25.396,0c9.063,0,18.125,0,27.188,0
			c8.748,0,17.496,0,26.244,0c8.783,0,17.567,0,26.351,0c6.133,0,12.266,0,18.399,0
			C152.404,232.813,152.395,232.573,152.381,232.335C152.372,231.871,152.388,232.572,152.381,232.335z"/>
		<rect x="53.856" y="166.789" fill="#FDCB81" width="45.333" height="18.5"/>
		<path fill="#FDCB81" d="M115.025,101.606L115.025,101.606l0.001-4.853V85.626V65.969v-8.235v-1.518
			c-0.067-1.702-0.417-3.269-1.051-4.707c-0.633-1.373-1.533-2.631-2.699-3.773c-2.2-2.156-4.784-3.35-7.75-3.58h-2.351h-0.05
			v-0.047v-8.188h-8.4h-33.05h-8.45v8.235v0.05h-0.05h-2.35c-2.967,0.228-5.55,1.421-7.75,3.58c-1.2,1.176-2.101,2.484-2.7,3.922
			c-0.634,1.403-0.967,2.923-1,4.557v1.47v8.235v19.657v11.127v4.24l-0.001-0.001v11.864c0.267,10.097,4.05,18.724,11.35,25.88
			c3.066,3.008,6.084,5.262,9.051,6.766c0.001,0,0.001,0,0.001,0v3.454v0.05v15.049c0.1,4.772,1.899,8.871,5.399,12.302
			c0.934,0.914,1.9,1.701,2.9,2.354c2.967,1.961,6.35,2.94,10.149,2.94c3.801,0,7.184-0.979,10.15-2.94
			c1-0.652,1.967-1.439,2.9-2.354c2.8-2.711,4.517-5.915,5.149-9.607c0.134-0.882,0.217-1.78,0.25-2.695v-15.049v-3.504
			c3.366-1.896,6.365-4.149,8.999-6.766c6.967-6.83,10.75-14.9,11.351-24.214c0.066-0.621,0.1-1.503,0.1-2.646
			c0-1.179-0.033-2.077-0.1-2.697V101.606z"/>
	</g>
	<g>
		<g transform="matrix( 1, 0, 0, 1, -1.05,33.2) ">
			<g>
				<g id="Layer0_1_FILL_2_">
					<path fill="#FDCB81" d="M48.401,10.351H48c-2.467,0.1-4.667,1.117-6.6,3.051c-1.934,1.932-2.934,4.266-3,7v11.699h77.649
						V20.402c-0.066-2.734-1.066-5.068-3-7c-1.933-1.934-4.25-2.934-6.95-3V4.401h-0.699c-3.834-0.101-7.134-1.55-9.9-4.351
						c-0.133-0.133-0.267-0.266-0.4-0.399c-0.033,0-0.066,0.017-0.1,0.05l-1-1.35c-6.066,4.699-16.751,5.851-24.684,6.05H48.401
						V10.351"/>
					<path fill="#FDCB81" d="M119,39.3v21.051h2.9c2.799-0.1,5.183-1.133,7.149-3.1c1.767-1.768,2.767-3.75,3.001-5.951l0.1-1.75
						c-0.1-2.865-1.133-5.25-3.101-7.148c-2.066-2.068-4.533-3.102-7.399-3.102H119"/>
					<path fill="#FDCB81" d="M90.6,129.101l5.1-12c-5.6,3.033-11.75,4.551-18.449,4.551c-6.6,0-12.75-1.518-18.45-4.551
						l12.149,28.35l0.25,0.5h12.15l0.2-0.5L90.6,129.101"/>
					<path fill="#FDCB81" d="M25.45,42.402c-2.033,2.033-3.05,4.5-3.05,7.398v0.301c0.067,2.801,1.083,5.184,3.05,7.15
						c2.067,2.066,4.55,3.1,7.451,3.1h2.549V39.3h-2.799C29.817,39.402,27.417,40.435,25.45,42.402z"/>
					<path fill="#E07E3C" d="M82.55,41.55V39.3H71.1v2.25v27.102l0.051,0.398h0.049H71.3h11.25v-0.148V41.55z"/>
					<polyline fill="#E2B574" points="106.6,41.55 116.05,32.101 38.401,32.101 47.85,41.55 71.1,41.55 71.1,39.3 82.55,39.3 
						82.55,41.55 106.6,41.55 					"/>
					<polyline fill="#E2B574" points="38.401,60.351 38.401,39.3 35.449,39.3 35.449,60.351 38.401,60.351 					"/>
					<polyline fill="#E2B574" points="119,60.351 119,39.3 116.05,39.3 116.05,60.351 119,60.351 					"/>
					<polyline fill="#E2B574" points="81.699,149.751 83.35,145.95 71.199,145.95 72.8,149.751 81.699,149.751 					"/>
					<path fill="#FDCB81" d="M116.05,76.05V68.7v-8.35V39.3v-7.199l-9.45,9.449H82.55v27.352v0.148h0.05
						c-0.166,1.367-0.717,2.551-1.65,3.551c-1.1,1.066-2.399,1.617-3.899,1.65h-0.149c-1.601,0-2.951-0.551-4.051-1.65
						c-0.934-0.934-1.467-2.051-1.6-3.35c-0.033-0.066-0.051-0.117-0.051-0.15V69.05h-0.049L71.1,68.652V41.55H47.85l-9.449-9.449
						V39.3v21.051v8.35v11.1c0.033,0.867,0.083,1.734,0.149,2.602c0.8,9.199,4.533,17.133,11.2,23.799
						c3.066,3.066,6.083,5.367,9.05,6.9c5.7,3.033,11.851,4.551,18.45,4.551c6.699,0,12.85-1.518,18.449-4.551
						c3.367-1.934,6.367-4.232,9-6.9c6.967-6.967,10.75-15.199,11.351-24.699c0.067-0.633,0.101-1.533,0.101-2.701
						C116.151,77.601,116.117,76.685,116.05,76.05z"/>
					<path fill="#B69D31" d="M105.55-22.05c-0.167,1.667-0.467,3.301-0.899,4.9c-1.5,6.267-4.684,11.867-9.551,16.8
						c0.134,0.134,0.268,0.267,0.4,0.399c2.767,2.801,6.066,4.25,9.9,4.351h0.699v6.001c2.7,0.066,5.018,1.066,6.95,3
						c1.934,1.932,2.934,4.266,3,7v11.699V39.3H119v-7.199l0.05-23.5c0-11.533-4.083-21.383-12.25-29.551
						c-0.399-0.399-0.816-0.799-1.25-1.199C105.55-22.116,105.55-22.083,105.55-22.05"/>
					<path fill="#B8A131" d="M78.151-33.2c-0.301,0-0.601,0-0.9,0c-11.533,0-21.383,4.084-29.551,12.25
						c-0.299,0.301-0.6,0.617-0.899,0.951c-7.366,7.766-11.149,17.016-11.351,27.75V39.3h2.951v-7.199V20.402
						c0.066-2.734,1.066-5.068,3-7c1.933-1.934,4.133-2.951,6.6-3.051h0.4v-5.95H76.8c6.5-0.167,12.233-2.183,17.2-6.05
						c1.033-0.834,2.033-1.733,3-2.7c3.8-3.767,6.35-8.033,7.65-12.8c0.433-1.6,0.732-3.233,0.899-4.9c0-0.033,0-0.066,0-0.1
						c-1.967-1.834-4.033-3.434-6.2-4.801C93.083-30.95,86.017-33.032,78.151-33.2z"/>
					<path fill="#D6E7F7" d="M53.699,129.101c-1,0.301-1.966,0.617-2.899,0.949c-4.634,1.701-9.066,3.885-13.3,6.551
						c-0.533,0.301-1.033,0.617-1.5,0.949c-0.7,0.434-1.383,0.885-2.051,1.352l10.851,10.85l1.05-2.35l0.75-1.701L53.699,129.101
						 M83.1,160.851l-0.55,1.25l5.3,21.65v-34L86,154.05L83.1,160.851 M68.5,154.05l-1.85-4.299V183.7l1.85-7.549l3.449-14.051
						l-0.5-1.25L68.5,154.05 M120.55,138.902c-1.134-0.801-2.283-1.568-3.45-2.301c-5.133-3.199-10.55-5.699-16.25-7.5l7.1,16.6
						l1.75,4.051L120.55,138.902z"/>
					<path fill="#B0D4F0" d="M58.8,117.101l-5.101,12l-7.1,16.6l-0.75,1.701l-1.05,2.35h21.851H72.8l-1.601-3.801l-0.25-0.5
						L58.8,117.101 M100.85,129.101l-5.15-12l-5.1,12l-7.05,16.35l-0.2,0.5l-1.65,3.801h6.15h21.85l-1.75-4.051L100.85,129.101
						 M115,178.902l-15,15h30L115,178.902z"/>
					<path fill="#C9A168" d="M95.699,117.101v-4c-5.6,3.033-11.75,4.551-18.449,4.551c-6.6,0-12.75-1.518-18.45-4.551v4
						c5.7,3.033,11.851,4.551,18.45,4.551C83.949,121.652,90.1,120.134,95.699,117.101z"/>
					<path fill="#157DAA" d="M71.949,162.101L68.5,176.152l14.05-14.051H71.949z"/>
					<path fill="#D6E7F7" d="M62.699,199.851l3.951-16.15v-33.949H44.8l-10.851-10.85c-3.666,2.6-7.199,5.582-10.599,8.949
						c-14.467,14.533-21.9,31.867-22.3,52H62.699 M153.449,199.851c0-0.768-0.033-1.551-0.1-2.35
						c-0.9-19.133-8.316-35.684-22.25-49.65c-3.366-3.367-6.883-6.35-10.55-8.949l-10.851,10.85H87.85v34l3.95,16.1H153.449
						 M100,193.902l15-15l15,15H100z"/>
					<path fill="#21A6DF" d="M66.651,183.7l-3.951,16.15H91.8l-3.95-16.1l-5.3-21.65L68.5,176.152L66.651,183.7 M81.699,149.751
						H72.8h-6.149l1.85,4.299l2.949,6.801l0.5,1.25H82.55l0.55-1.25l2.9-6.801l1.85-4.299H81.699z"/>
					<path fill="#C77036" d="M80.949,72.601c0.934-1,1.484-2.184,1.65-3.551h-0.05H71.3h-0.101v0.051
						c0,0.033,0.018,0.084,0.051,0.15c0.133,1.299,0.666,2.416,1.6,3.35c1.1,1.1,2.45,1.65,4.051,1.65h0.149
						C78.55,74.218,79.85,73.667,80.949,72.601z"/>
					<path fill="#A98F30" d="M94-1.649c0.333,0.434,0.699,0.867,1.1,1.3c4.867-4.933,8.051-10.533,9.551-16.8
						c-1.301,4.767-3.851,9.033-7.65,12.8C96.033-3.383,95.033-2.483,94-1.649z"/>
				</g>
			</g>
		</g>
		<g transform="matrix( 1, 0, 0, 1, -1.05,33.2) ">
			<g>
				<g id="Layer0_1_MEMBER_0_FILL_2_">
					<path fill="#0F5572" d="M53.05,43.3c0.467,0.5,1.033,0.75,1.7,0.75c0.666,0,1.233-0.25,1.699-0.75
						c0.5-0.467,0.75-1.033,0.75-1.699s-0.25-1.232-0.75-1.699c-0.466-0.5-1.033-0.75-1.699-0.75c-0.667,0-1.233,0.25-1.7,0.75
						c-0.5,0.467-0.75,1.033-0.75,1.699S52.55,42.833,53.05,43.3 M101.449,39.902c-0.466-0.5-1.033-0.75-1.699-0.75
						c-0.667,0-1.233,0.25-1.7,0.75c-0.5,0.467-0.75,1.033-0.75,1.699s0.25,1.232,0.75,1.699c0.467,0.5,1.033,0.75,1.7,0.75
						c0.666,0,1.233-0.25,1.699-0.75c0.5-0.467,0.75-1.033,0.75-1.699S101.949,40.368,101.449,39.902z"/>
				</g>
			</g>
		</g>
		<g transform="matrix( 1, 0, 0, 1, -55.15,33.2) ">
			<g>
				<g id="Layer0_1_MEMBER_1_FILL_2_">
					<path fill="#FAE5BE" d="M117.4,86.251c0.033,1.266,0.217,2.482,0.55,3.65h26.801c0.366-1.234,0.549-2.551,0.549-3.951
						c0-0.033,0-0.082,0-0.15c0-0.166,0-0.299,0-0.398H117.4V86.251z"/>
					<path fill="#EB4639" d="M126.6,95.751c-0.2,0.166-0.4,0.35-0.6,0.549c-0.567,0.602-1.033,1.234-1.4,1.9
						c1.934,1.066,4.1,1.617,6.5,1.65c0.033,0,0.1,0,0.199,0c0.168,0,0.301,0,0.4,0c2.334-0.033,4.467-0.584,6.4-1.65
						c-0.334-0.666-0.801-1.299-1.4-1.9c-0.199-0.199-0.416-0.383-0.65-0.549c-1.299-1.066-2.816-1.617-4.549-1.65
						c-0.033,0-0.084,0-0.15,0s-0.133,0-0.2,0C129.45,94.134,127.933,94.685,126.6,95.751z"/>
					<path fill="#4C3126" d="M126.001,96.3c0.199-0.199,0.399-0.383,0.6-0.549c1.333-1.066,2.85-1.617,4.55-1.65
						c0.067,0,0.134,0,0.2,0s0.117,0,0.15,0c1.732,0.033,3.25,0.584,4.549,1.65c0.234,0.166,0.451,0.35,0.65,0.549
						c0.6,0.602,1.066,1.234,1.4,1.9c0.666-0.4,1.316-0.85,1.949-1.35c0.4-0.334,0.784-0.684,1.15-1.051
						c1.733-1.732,2.917-3.699,3.551-5.898H117.95c0.6,2.199,1.783,4.166,3.551,5.898c0.366,0.367,0.75,0.717,1.149,1.051
						c0.634,0.5,1.283,0.949,1.95,1.35C124.967,97.534,125.433,96.902,126.001,96.3z"/>
				</g>
			</g>
		</g>
		<path fill="#B69D31" d="M93.917,62.801c-0.666,0-1.233,0.232-1.699,0.699c-0.467,0.467-0.701,1.033-0.701,1.701
			c0,0.666,0.234,1.232,0.701,1.699c0.466,0.467,1.033,0.701,1.699,0.701h9.45c0.667,0,1.233-0.234,1.7-0.701
			s0.699-1.033,0.699-1.699c0-0.668-0.232-1.234-0.699-1.701s-1.033-0.699-1.7-0.699H93.917"/>
		<path fill="#B69D31" d="M48.917,62.801c-0.666,0-1.233,0.232-1.699,0.699c-0.467,0.467-0.701,1.033-0.701,1.701
			c0,0.666,0.234,1.232,0.701,1.699c0.466,0.467,1.033,0.701,1.699,0.701h9.45c0.667,0,1.233-0.234,1.7-0.701
			s0.699-1.033,0.699-1.699c0-0.668-0.232-1.234-0.699-1.701s-1.033-0.699-1.7-0.699H48.917"/>
	</g>
	<path fill="#F6D71D" d="M47.802,46.144l-0.041-8.413l20.922,0.024h20.079h8.399l11.951-11.991V13.672V0.013H49.773L25.112,24.761
		v24.936l9.299,4.214c0.601-1.472,1.5-2.809,2.701-4.014c2.199-2.207,4.783-3.428,7.75-3.661L47.802,46.144z"/>
	<path fill="#B8A131" d="M71.8,134.301c-0.467,0-0.867,0.168-1.199,0.5c-0.334,0.334-0.5,0.734-0.5,1.201v0.049
		c0,0.467,1.393,6.21,1.726,6.544c0.333,0.332,0.733,0.5,1.2,0.5h6.344c0.467,0,0.867-0.168,1.2-0.5
		c0.333-0.334,1.78-6.077,1.78-6.544v-0.049c0-0.467-0.168-0.867-0.5-1.201c-0.334-0.332-0.734-0.5-1.201-0.5H71.8z"/>
</g>
</svg>
